<svg width="127" height="35" viewBox="0 0 127 35" fill="none" xmlns="http://www.w3.org/2000/svg">
<path d="M0.449219 27.6885L1.34277 27.6104C1.38509 27.9684 1.48275 28.263 1.63574 28.4941C1.79199 28.722 2.03288 28.9076 2.3584 29.0508C2.68392 29.1908 3.05013 29.2607 3.45703 29.2607C3.81836 29.2607 4.13737 29.207 4.41406 29.0996C4.69076 28.9922 4.89583 28.8457 5.0293 28.6602C5.16602 28.4714 5.23438 28.2663 5.23438 28.0449C5.23438 27.8203 5.16927 27.625 5.03906 27.459C4.90885 27.2897 4.69401 27.1481 4.39453 27.0342C4.20247 26.9593 3.77767 26.8438 3.12012 26.6875C2.46257 26.528 2.00195 26.3783 1.73828 26.2383C1.39648 26.0592 1.14095 25.8379 0.97168 25.5742C0.805664 25.3073 0.722656 25.0094 0.722656 24.6807C0.722656 24.3193 0.825195 23.9824 1.03027 23.6699C1.23535 23.3542 1.53483 23.1149 1.92871 22.9521C2.32259 22.7894 2.76042 22.708 3.24219 22.708C3.77279 22.708 4.23991 22.7943 4.64355 22.9668C5.05046 23.1361 5.36296 23.3867 5.58105 23.7188C5.79915 24.0508 5.91634 24.4268 5.93262 24.8467L5.02441 24.915C4.97559 24.4626 4.80957 24.1208 4.52637 23.8896C4.24642 23.6585 3.83138 23.543 3.28125 23.543C2.70833 23.543 2.29004 23.6488 2.02637 23.8604C1.76595 24.0687 1.63574 24.321 1.63574 24.6172C1.63574 24.8743 1.72852 25.0859 1.91406 25.252C2.09635 25.418 2.57161 25.5889 3.33984 25.7646C4.11133 25.9372 4.6403 26.0885 4.92676 26.2188C5.34342 26.4108 5.65104 26.6549 5.84961 26.9512C6.04818 27.2441 6.14746 27.5827 6.14746 27.9668C6.14746 28.3477 6.03841 28.7074 5.82031 29.0459C5.60221 29.3812 5.28809 29.6432 4.87793 29.832C4.47103 30.0176 4.01204 30.1104 3.50098 30.1104C2.85319 30.1104 2.30957 30.016 1.87012 29.8271C1.43392 29.6383 1.09049 29.3551 0.839844 28.9775C0.592448 28.5967 0.46224 28.167 0.449219 27.6885ZM10.658 29.9883V26.9561L7.89922 22.8301H9.05156L10.4627 24.9883C10.7231 25.3919 10.9656 25.7956 11.1902 26.1992C11.4051 25.8249 11.6655 25.4033 11.9715 24.9346L13.3582 22.8301H14.4617L11.6053 26.9561V29.9883H10.658ZM16.1891 27.6885L17.0826 27.6104C17.1249 27.9684 17.2226 28.263 17.3756 28.4941C17.5318 28.722 17.7727 28.9076 18.0982 29.0508C18.4238 29.1908 18.79 29.2607 19.1969 29.2607C19.5582 29.2607 19.8772 29.207 20.1539 29.0996C20.4306 28.9922 20.6357 28.8457 20.7691 28.6602C20.9059 28.4714 20.9742 28.2663 20.9742 28.0449C20.9742 27.8203 20.9091 27.625 20.7789 27.459C20.6487 27.2897 20.4339 27.1481 20.1344 27.0342C19.9423 26.9593 19.5175 26.8438 18.86 26.6875C18.2024 26.528 17.7418 26.3783 17.4781 26.2383C17.1363 26.0592 16.8808 25.8379 16.7115 25.5742C16.5455 25.3073 16.4625 25.0094 16.4625 24.6807C16.4625 24.3193 16.565 23.9824 16.7701 23.6699C16.9752 23.3542 17.2747 23.1149 17.6686 22.9521C18.0624 22.7894 18.5003 22.708 18.982 22.708C19.5126 22.708 19.9798 22.7943 20.3834 22.9668C20.7903 23.1361 21.1028 23.3867 21.3209 23.7188C21.539 24.0508 21.6562 24.4268 21.6725 24.8467L20.7643 24.915C20.7154 24.4626 20.5494 24.1208 20.2662 23.8896C19.9863 23.6585 19.5712 23.543 19.0211 23.543C18.4482 23.543 18.0299 23.6488 17.7662 23.8604C17.5058 24.0687 17.3756 24.321 17.3756 24.6172C17.3756 24.8743 17.4684 25.0859 17.6539 25.252C17.8362 25.418 18.3115 25.5889 19.0797 25.7646C19.8512 25.9372 20.3801 26.0885 20.6666 26.2188C21.0833 26.4108 21.3909 26.6549 21.5895 26.9512C21.788 27.2441 21.8873 27.5827 21.8873 27.9668C21.8873 28.3477 21.7783 28.7074 21.5602 29.0459C21.3421 29.3812 21.0279 29.6432 20.6178 29.832C20.2109 30.0176 19.7519 30.1104 19.2408 30.1104C18.593 30.1104 18.0494 30.016 17.61 29.8271C17.1738 29.6383 16.8303 29.3551 16.5797 28.9775C16.3323 28.5967 16.2021 28.167 16.1891 27.6885ZM26.2025 29.9883V23.6748H23.8441V22.8301H29.518V23.6748H27.1498V29.9883H26.2025ZM31.7141 29.9883V22.8301H36.8898V23.6748H32.6613V25.8672H36.6213V26.707H32.6613V29.1436H37.0559V29.9883H31.7141ZM39.5352 29.9883V22.8301H40.9609L42.6553 27.8984C42.8115 28.3704 42.9255 28.7236 42.9971 28.958C43.0785 28.6976 43.2054 28.3151 43.3779 27.8105L45.0918 22.8301H46.3662V29.9883H45.4531V23.9971L43.373 29.9883H42.5186L40.4482 23.8945V29.9883H39.5352ZM52.7555 27.6885L53.649 27.6104C53.6913 27.9684 53.789 28.263 53.942 28.4941C54.0982 28.722 54.3391 28.9076 54.6646 29.0508C54.9902 29.1908 55.3564 29.2607 55.7633 29.2607C56.1246 29.2607 56.4436 29.207 56.7203 29.0996C56.997 28.9922 57.2021 28.8457 57.3355 28.6602C57.4723 28.4714 57.5406 28.2663 57.5406 28.0449C57.5406 27.8203 57.4755 27.625 57.3453 27.459C57.2151 27.2897 57.0003 27.1481 56.7008 27.0342C56.5087 26.9593 56.0839 26.8438 55.4264 26.6875C54.7688 26.528 54.3082 26.3783 54.0445 26.2383C53.7027 26.0592 53.4472 25.8379 53.2779 25.5742C53.1119 25.3073 53.0289 25.0094 53.0289 24.6807C53.0289 24.3193 53.1314 23.9824 53.3365 23.6699C53.5416 23.3542 53.8411 23.1149 54.235 22.9521C54.6288 22.7894 55.0667 22.708 55.5484 22.708C56.079 22.708 56.5462 22.7943 56.9498 22.9668C57.3567 23.1361 57.6692 23.3867 57.8873 23.7188C58.1054 24.0508 58.2226 24.4268 58.2389 24.8467L57.3307 24.915C57.2818 24.4626 57.1158 24.1208 56.8326 23.8896C56.5527 23.6585 56.1376 23.543 55.5875 23.543C55.0146 23.543 54.5963 23.6488 54.3326 23.8604C54.0722 24.0687 53.942 24.321 53.942 24.6172C53.942 24.8743 54.0348 25.0859 54.2203 25.252C54.4026 25.418 54.8779 25.5889 55.6461 25.7646C56.4176 25.9372 56.9466 26.0885 57.233 26.2188C57.6497 26.4108 57.9573 26.6549 58.1559 26.9512C58.3544 27.2441 58.4537 27.5827 58.4537 27.9668C58.4537 28.3477 58.3447 28.7074 58.1266 29.0459C57.9085 29.3812 57.5943 29.6432 57.1842 29.832C56.7773 30.0176 56.3183 30.1104 55.8072 30.1104C55.1594 30.1104 54.6158 30.016 54.1764 29.8271C53.7402 29.6383 53.3967 29.3551 53.1461 28.9775C52.8987 28.5967 52.7685 28.167 52.7555 27.6885ZM62.7689 29.9883V23.6748H60.4105V22.8301H66.0844V23.6748H63.7162V29.9883H62.7689ZM66.7326 29.9883L69.4816 22.8301H70.5022L73.4318 29.9883H72.3527L71.5178 27.8203H68.5246L67.7385 29.9883H66.7326ZM68.798 27.0488H71.2248L70.4777 25.0664C70.2499 24.4642 70.0806 23.9694 69.9699 23.582C69.8788 24.041 69.7502 24.4967 69.5842 24.9492L68.798 27.0488ZM76.4678 29.9883V23.6748H74.1094V22.8301H79.7832V23.6748H77.415V29.9883H76.4678ZM86.657 22.8301H87.6043V26.9658C87.6043 27.6852 87.5229 28.2565 87.3602 28.6797C87.1974 29.1029 86.9028 29.4479 86.4764 29.7148C86.0532 29.9785 85.4965 30.1104 84.8064 30.1104C84.1359 30.1104 83.5874 29.9948 83.1609 29.7637C82.7345 29.5326 82.4301 29.1989 82.2478 28.7627C82.0656 28.3232 81.9744 27.7243 81.9744 26.9658V22.8301H82.9217V26.9609C82.9217 27.5827 82.9786 28.0417 83.0926 28.3379C83.2098 28.6309 83.4083 28.8571 83.6883 29.0166C83.9715 29.1761 84.3165 29.2559 84.7234 29.2559C85.42 29.2559 85.9165 29.098 86.2127 28.7822C86.5089 28.4665 86.657 27.8594 86.657 26.9609V22.8301ZM90.0641 27.6885L90.9576 27.6104C90.9999 27.9684 91.0976 28.263 91.2506 28.4941C91.4068 28.722 91.6477 28.9076 91.9732 29.0508C92.2988 29.1908 92.665 29.2607 93.0719 29.2607C93.4332 29.2607 93.7522 29.207 94.0289 29.0996C94.3056 28.9922 94.5107 28.8457 94.6441 28.6602C94.7809 28.4714 94.8492 28.2663 94.8492 28.0449C94.8492 27.8203 94.7841 27.625 94.6539 27.459C94.5237 27.2897 94.3089 27.1481 94.0094 27.0342C93.8173 26.9593 93.3925 26.8438 92.735 26.6875C92.0774 26.528 91.6168 26.3783 91.3531 26.2383C91.0113 26.0592 90.7558 25.8379 90.5865 25.5742C90.4205 25.3073 90.3375 25.0094 90.3375 24.6807C90.3375 24.3193 90.44 23.9824 90.6451 23.6699C90.8502 23.3542 91.1497 23.1149 91.5436 22.9521C91.9374 22.7894 92.3753 22.708 92.857 22.708C93.3876 22.708 93.8548 22.7943 94.2584 22.9668C94.6653 23.1361 94.9778 23.3867 95.1959 23.7188C95.414 24.0508 95.5312 24.4268 95.5475 24.8467L94.6393 24.915C94.5904 24.4626 94.4244 24.1208 94.1412 23.8896C93.8613 23.6585 93.4462 23.543 92.8961 23.543C92.3232 23.543 91.9049 23.6488 91.6412 23.8604C91.3808 24.0687 91.2506 24.321 91.2506 24.6172C91.2506 24.8743 91.3434 25.0859 91.5289 25.252C91.7112 25.418 92.1865 25.5889 92.9547 25.7646C93.7262 25.9372 94.2551 26.0885 94.5416 26.2188C94.9583 26.4108 95.2659 26.6549 95.4645 26.9512C95.663 27.2441 95.7623 27.5827 95.7623 27.9668C95.7623 28.3477 95.6533 28.7074 95.4352 29.0459C95.2171 29.3812 94.9029 29.6432 94.4928 29.832C94.0859 30.0176 93.6269 30.1104 93.1158 30.1104C92.468 30.1104 91.9244 30.016 91.485 29.8271C91.0488 29.6383 90.7053 29.3551 90.4547 28.9775C90.2073 28.5967 90.0771 28.167 90.0641 27.6885Z" fill="black"/>
<path d="M121.276 4.38281C117.764 4.38281 115.367 6.90234 115.367 10.168C115.367 13.4336 117.74 15.9531 121.5 15.9531C123.649 15.9531 125.329 15.0977 126.381 13.6094L124.053 12.293L124.025 12.3281C123.529 12.9453 122.645 13.3906 121.544 13.3906C120.024 13.3906 118.792 12.7734 118.388 11.3281H126.829L126.845 11.2422C126.901 10.8984 126.941 10.5508 126.941 10.168C126.941 6.94531 124.589 4.38281 121.276 4.38281ZM118.344 9.13672L118.356 9.08594C118.704 7.71484 119.752 6.92188 121.276 6.92188C122.489 6.92188 123.697 7.55859 124.053 9.13672H118.344Z" fill="#FF3C3C"/>
<path d="M109.478 4.38281C107.978 4.38281 106.849 4.92969 106.177 5.91406V4.69531H103.285V15.6445H106.177V9.73047C106.177 7.82031 107.193 7.01172 108.606 7.01172C109.902 7.01172 110.83 7.77734 110.83 9.26953V15.6445H113.723V8.91797C113.723 6.00391 111.85 4.38281 109.478 4.38281Z" fill="#FF3C3C"/>
<path d="M96.0392 4.38281C92.5225 4.38281 90.126 6.90234 90.126 10.168C90.126 13.4336 92.5025 15.9531 96.2633 15.9531C98.4117 15.9531 100.092 15.0977 101.144 13.6094L98.8158 12.293L98.7878 12.3281C98.2877 12.9453 97.4035 13.3906 96.3073 13.3906C94.783 13.3906 93.5507 12.7734 93.1466 11.3281H101.588L101.604 11.2422C101.664 10.8984 101.7 10.5508 101.7 10.168C101.704 6.94531 99.3519 4.38281 96.0392 4.38281ZM93.1066 9.13672L93.1186 9.08594C93.4667 7.71484 94.5149 6.92188 96.0392 6.92188C97.2475 6.92188 98.4557 7.55859 98.8158 9.13672H93.1066Z" fill="#FF3C3C"/>
<path d="M80.7922 7.40625V10.0781H85.5371C85.001 11.832 83.4327 12.9922 80.9682 12.9922C77.6996 12.9922 75.6191 10.8438 75.6191 7.99609C75.6191 5.08203 77.7676 2.93359 80.7442 2.93359C82.6485 2.93359 84.2369 3.83203 84.957 5.05859L87.5975 3.57031C86.2773 1.46484 83.7448 0 80.7682 0C76.0872 0 72.5505 3.55078 72.5505 8C72.5505 12.3828 76.0432 15.9531 80.9482 15.9531C85.4491 15.9531 88.6497 13.0156 88.6497 8.58984V7.40625H80.7922Z" fill="#FF3C3C"/>
<path d="M65.6291 4.38281C64.1288 4.38281 62.9646 4.92969 62.2925 5.91406V4.69531H59.4039V15.6445H62.2925V9.73047C62.2925 7.82031 63.3447 7.01172 64.757 7.01172C66.0572 7.01172 66.9454 7.77734 66.9454 9.26953V15.6445H69.838V8.91797C69.838 6.00391 68.0016 4.38281 65.6291 4.38281Z" fill="#00004E"/>
<path d="M51.5503 4.38281C48.2577 4.38281 45.6371 6.90234 45.6371 10.168C45.6371 13.4336 48.2577 15.9531 51.5503 15.9531C54.843 15.9531 57.4835 13.4336 57.4835 10.168C57.4835 6.90234 54.843 4.38281 51.5503 4.38281ZM51.5503 13.1914C49.85 13.1914 48.5257 11.9414 48.5257 10.168C48.5257 8.39453 49.85 7.14453 51.5503 7.14453C53.2747 7.14453 54.5949 8.39453 54.5949 10.168C54.5949 11.9414 53.2747 13.1914 51.5503 13.1914Z" fill="#00004E"/>
<path d="M44.0608 7.40625V4.69531H41.5483V1.61719L38.6597 2.47266V4.69141H36.6433V7.40234H38.6597V11.9648C38.6597 14.9219 40.008 16.0859 44.0608 15.6445V13.082C42.4045 13.168 41.5483 13.1484 41.5483 11.9648V7.40625H44.0608Z" fill="#00004E"/>
<path d="M29.5219 7.80078C29.5219 7.20703 30.106 6.90234 30.8222 6.90234C31.6503 6.90234 32.2785 7.31641 32.6145 8.01953L35.079 6.70313C34.2068 5.19141 32.6385 4.38281 30.8222 4.38281C28.5177 4.38281 26.5693 5.62891 26.5693 7.86328C26.5693 11.7227 32.3465 10.8477 32.3465 12.4453C32.3465 13.082 31.7183 13.3906 30.8022 13.3906C29.6819 13.3906 28.9218 12.8633 28.6057 11.9648L26.1012 13.3477C26.9054 15.0352 28.5617 15.9531 30.8022 15.9531C33.1986 15.9531 35.3031 14.8125 35.3031 12.4492C35.3031 8.41406 29.5219 9.42188 29.5219 7.80078Z" fill="#00004E"/>
<path d="M19.0158 4.38281C15.7271 4.38281 13.1066 6.90234 13.1066 10.168C13.1066 13.4336 15.7271 15.9531 19.0158 15.9531C22.3085 15.9531 24.953 13.4336 24.953 10.168C24.953 6.90234 22.3085 4.38281 19.0158 4.38281ZM19.0158 13.1914C17.3155 13.1914 15.9952 11.9414 15.9952 10.168C15.9952 8.39453 17.3155 7.14453 19.0158 7.14453C20.7402 7.14453 22.0644 8.39453 22.0644 10.168C22.0644 11.9414 20.7402 13.1914 19.0158 13.1914Z" fill="#00004E"/>
<path d="M9.57792 7.69141C10.4941 6.96484 11.0542 5.9375 11.0542 4.62109C11.0542 2.05859 8.92979 0.261719 6.28526 0.261719H0.0520096V15.75H6.83737C9.5099 15.7109 11.6383 13.8008 11.6383 11.1953C11.6383 9.59766 10.8302 8.39062 9.57792 7.69141ZM3.19664 3.08984H6.32927C7.28946 3.10937 7.96559 3.77734 7.96559 4.72656C7.96559 5.69141 7.24945 6.41406 6.28526 6.41406H3.19664V3.08984ZM6.75735 12.8203H3.19664V9.24609H6.79736C7.82957 9.26562 8.56972 9.98437 8.56972 11C8.56972 12.0508 7.80956 12.8203 6.75735 12.8203Z" fill="#00004E"/>
</svg>
